# xmcd
#
# Track frame offsets:
#   150
#   14133
#   30102
#   47021
#   59733
#   73933
#   88726
#   94758
#   108780
#   122835
#   138227
#   151639
#   166089
#
# Disc length: 2396 seconds
#
# Revision: 0
# Processed by: cddbd v1.5.2PL0 Copyright (c) Steve Scherf et al.
# Submitted via: GXTranscoder 2.0.1939
#
DISCID=a4095a0d
DTITLE=Esta - Estatainment
DYEAR=1900
DGENRE=Hip Hop
TTITLE0=Estataintment
TTITLE1=Es Läuft
TTITLE2=Allein gegen alle
TTITLE3=Sommer
TTITLE4=M.I.C
TTITLE5=Lass dich Gehen
TTITLE6=Telefon Skit
TTITLE7=Hancock
TTITLE8=Nice
TTITLE9=24/7
TTITLE10=Little miss Perfect
TTITLE11=Lass sie reden
TTITLE12=Dschungel
EXTD=
EXTT0=
EXTT1=
EXTT2=
EXTT3=
EXTT4=
EXTT5=
EXTT6=
EXTT7=
EXTT8=
EXTT9=
EXTT10=
EXTT11=
EXTT12=
PLAYORDER=
